<svg xmlns="http://www.w3.org/2000/svg" width="24" height="24" viewBox="0 0 24 24">
    <defs>
        <style>.a{fill:none;}.b{fill:#00e676;}</style>
    </defs>
    <g transform="translate(0)">
        <path class="a" d="M0,0H24V24H0Z"/>
        <path class="b" d="M15,4a8,8,0,1,0,8,8A8,8,0,0,0,15,4Zm0,14a6,6,0,1,1,6-6A6,6,0,0,1,15,18ZM3,12A5.994,5.994,0,0,1,6.43,6.58.935.935,0,0,0,7,5.74V5.55a.917.917,0,0,0-1.32-.82,7.987,7.987,0,0,0,0,14.54A.921.921,0,0,0,7,18.45v-.18a.949.949,0,0,0-.57-.85A5.994,5.994,0,0,1,3,12Z"/>
    </g>
</svg>