<svg xmlns="http://www.w3.org/2000/svg" xmlns:xlink="http://www.w3.org/1999/xlink" width="120" height="138.198" viewBox="0 0 120 138.198">
  <defs>
    <linearGradient id="linear-gradient" x1="0.751" y1="0.152" x2="0.31" y2="0.849" gradientUnits="objectBoundingBox">
      <stop offset="0" stop-color="#e199b8" />
      <stop offset="1" stop-color="#836ffe" />
    </linearGradient>
  </defs>
  <path id="Path_447" data-name="Path 447" d="M125.807-3864.479a280.283,280.283,0,0,1-27.727-15.108c-29.78-18.78-29.78-29.637-29.78-33.305v-54l60-34.623,60,34.623v53.986c0,5.725-3.081,15.26-29.78,32.424-13.643,8.8-27.007,15.549-27.58,15.843l-2.493,1.322ZM80.181-3960v47.238c0,1.322,1.175,8.658,24.206,23.325,9.682,6.018,19.364,11.017,23.766,13.207,4.549-2.35,14.231-7.629,23.913-13.937,23.619-15.26,24.207-21.861,24.207-22.449V-3960l-24.354-14.033v51l-11.88,8.511v-66.359l-11.885-6.848-11.591,6.7v66.508l-11.734-8.511v-51.215Z" transform="translate(-68.3 4001.521)" fill="url(#linear-gradient)" />
</svg>